<!--?xml version="1.0" encoding="UTF-8"?-->
<svg xmlns="http://www.w3.org/2000/svg" viewBox="0 0 24 24" aria-hidden="true" focusable="false">
    <!-- Redis stack -->
    <path d="M12 2C7.03 2 3 3.79 3 6s4.03 4 9 4 9-1.79 9-4-4.03-4-9-4zm0 6c-4.42 0-7-.99-7-2s2.58-2 7-2 7 .99 7 2-2.58 2-7 2z"></path>

    <path d="M3 9v3c0 2.21 4.03 4 9 4s9-1.79 9-4V9c-1.94 1.38-5.2 2-9 2s-7.06-.62-9-2z"></path>

    <path d="M3 15v3c0 2.21 4.03 4 9 4s9-1.79 9-4v-3c-1.94 1.38-5.2 2-9 2s-7.06-.62-9-2z"></path>

    <!-- Cache bolt -->
    <path d="M13.5 7.5L9 13h3l-1.5 3.5L15 11h-3z"></path>
</svg>
