<?xml version="1.0" encoding="UTF-8"?>
<svg xmlns="http://www.w3.org/2000/svg" xmlns:xlink="http://www.w3.org/1999/xlink" width="128px" height="85px" viewBox="0 0 127 85" version="1.1">
<g id="surface1">
<path style=" stroke:none;fill-rule:nonzero;fill:rgb(98.823529%,98.823529%,98.823529%);fill-opacity:1;" d="M 0 0 C 41.910156 0 83.820312 0 127 0 C 127 28.050781 127 56.101562 127 85 C 85.089844 85 43.179688 85 0 85 C 0 56.949219 0 28.898438 0 0 Z M 0 0 "/>
<path style=" stroke:none;fill-rule:nonzero;fill:rgb(57.647061%,60.392159%,64.313728%);fill-opacity:1;" d="M 65.65625 37.289062 C 65.890625 37.382812 66.125 37.460938 66.363281 37.542969 C 66.839844 37.707031 67.308594 37.882812 67.765625 38.09375 C 68.425781 38.386719 69.117188 38.628906 69.804688 38.851562 C 70.113281 38.953125 70.414062 39.066406 70.714844 39.195312 C 71.605469 39.578125 72.519531 39.902344 73.425781 40.238281 C 73.757812 40.363281 74.089844 40.492188 74.417969 40.617188 C 74.507812 40.652344 74.597656 40.6875 74.691406 40.726562 C 74.878906 40.796875 75.0625 40.871094 75.25 40.941406 C 75.773438 41.148438 76.300781 41.335938 76.835938 41.511719 C 77.398438 41.699219 77.945312 41.925781 78.496094 42.148438 C 78.789062 42.265625 79.082031 42.382812 79.375 42.5 C 79.441406 42.527344 79.507812 42.554688 79.578125 42.582031 C 79.769531 42.660156 79.964844 42.734375 80.15625 42.8125 C 80.214844 42.835938 80.277344 42.859375 80.339844 42.886719 C 80.703125 43.023438 81.0625 43.144531 81.4375 43.246094 C 81.960938 43.402344 82.640625 43.65625 82.941406 44.144531 C 83.023438 44.351562 83.035156 44.507812 83.035156 44.730469 C 83.035156 44.8125 83.039062 44.890625 83.039062 44.972656 C 83.039062 45.101562 83.039062 45.101562 83.039062 45.234375 C 83.039062 45.324219 83.039062 45.410156 83.039062 45.503906 C 83.039062 45.691406 83.039062 45.878906 83.039062 46.066406 C 83.039062 46.351562 83.039062 46.640625 83.042969 46.925781 C 83.042969 47.109375 83.042969 47.292969 83.042969 47.476562 C 83.042969 47.5625 83.042969 47.648438 83.046875 47.734375 C 83.039062 48.476562 83.039062 48.476562 82.765625 48.808594 C 82.488281 49.078125 82.191406 49.222656 81.839844 49.371094 C 81.539062 49.503906 81.238281 49.644531 80.941406 49.785156 C 80.882812 49.808594 80.828125 49.835938 80.769531 49.863281 C 80.636719 49.925781 80.5 49.992188 80.367188 50.054688 C 80.367188 50.109375 80.367188 50.164062 80.367188 50.21875 C 80.496094 50.28125 80.625 50.339844 80.753906 50.402344 C 80.867188 50.453125 80.976562 50.507812 81.089844 50.558594 C 81.363281 50.6875 81.636719 50.816406 81.914062 50.933594 C 82.007812 50.972656 82.101562 51.011719 82.195312 51.054688 C 82.28125 51.089844 82.363281 51.125 82.449219 51.160156 C 82.734375 51.328125 82.9375 51.507812 83.09375 51.796875 C 83.152344 52.078125 83.152344 52.351562 83.148438 52.640625 C 83.148438 52.71875 83.148438 52.800781 83.148438 52.882812 C 83.148438 53.054688 83.148438 53.222656 83.144531 53.394531 C 83.140625 53.652344 83.144531 53.910156 83.144531 54.171875 C 83.144531 54.335938 83.144531 54.503906 83.140625 54.667969 C 83.144531 54.746094 83.144531 54.820312 83.144531 54.898438 C 83.136719 55.398438 83.046875 55.777344 82.765625 56.195312 C 82.601562 56.34375 82.601562 56.34375 82.4375 56.429688 C 82.382812 56.460938 82.324219 56.492188 82.261719 56.527344 C 82.210938 56.554688 82.15625 56.582031 82.101562 56.613281 C 82.039062 56.652344 81.972656 56.695312 81.90625 56.742188 C 81.636719 56.890625 81.351562 57 81.066406 57.113281 C 80.824219 57.207031 80.59375 57.308594 80.367188 57.441406 C 80.339844 57.523438 80.3125 57.605469 80.285156 57.691406 C 80.347656 57.710938 80.410156 57.730469 80.476562 57.75 C 80.894531 57.898438 81.296875 58.078125 81.699219 58.261719 C 81.78125 58.296875 81.863281 58.332031 81.949219 58.371094 C 82.027344 58.40625 82.105469 58.441406 82.1875 58.476562 C 82.292969 58.527344 82.292969 58.527344 82.402344 58.574219 C 82.71875 58.753906 82.898438 58.921875 83.011719 59.269531 C 83.019531 59.386719 83.023438 59.503906 83.027344 59.625 C 83.027344 59.695312 83.027344 59.765625 83.027344 59.839844 C 83.027344 59.957031 83.027344 59.957031 83.03125 60.074219 C 83.03125 60.152344 83.03125 60.230469 83.03125 60.3125 C 83.03125 60.484375 83.03125 60.652344 83.03125 60.820312 C 83.035156 61.078125 83.035156 61.332031 83.039062 61.589844 C 83.039062 61.753906 83.039062 61.917969 83.039062 62.082031 C 83.042969 62.15625 83.042969 62.234375 83.042969 62.3125 C 83.042969 62.746094 83.003906 63.042969 82.765625 63.417969 C 82.484375 63.6875 82.191406 63.839844 81.835938 63.988281 C 81.761719 64.019531 81.761719 64.019531 81.683594 64.050781 C 81.171875 64.265625 80.644531 64.449219 80.121094 64.628906 C 79.785156 64.746094 79.457031 64.871094 79.125 64.996094 C 79.058594 65.023438 78.988281 65.046875 78.914062 65.078125 C 78.75 65.140625 78.582031 65.203125 78.417969 65.265625 C 76.597656 65.960938 74.777344 66.644531 72.953125 67.328125 C 72.777344 67.394531 72.601562 67.460938 72.425781 67.527344 C 72.050781 67.667969 71.675781 67.808594 71.300781 67.949219 C 71.066406 68.035156 70.832031 68.121094 70.597656 68.210938 C 70.4375 68.269531 70.28125 68.328125 70.121094 68.386719 C 69.003906 68.800781 69.003906 68.800781 67.898438 69.242188 C 67.300781 69.484375 66.695312 69.703125 66.085938 69.90625 C 65.96875 69.945312 65.847656 69.984375 65.730469 70.027344 C 64.574219 70.4375 63.429688 70.621094 62.257812 70.132812 C 62.132812 70.082031 62.007812 70.035156 61.882812 69.984375 C 61.8125 69.957031 61.746094 69.929688 61.671875 69.902344 C 61.382812 69.789062 61.09375 69.6875 60.800781 69.585938 C 59.890625 69.265625 58.984375 68.925781 58.078125 68.589844 C 57.90625 68.527344 57.738281 68.464844 57.566406 68.398438 C 56.898438 68.152344 56.230469 67.902344 55.5625 67.652344 C 55.453125 67.609375 55.34375 67.570312 55.234375 67.527344 C 55.152344 67.496094 55.152344 67.496094 55.066406 67.464844 C 54.945312 67.417969 54.820312 67.371094 54.699219 67.324219 C 54.34375 67.191406 53.988281 67.058594 53.628906 66.925781 C 52.898438 66.648438 52.164062 66.371094 51.429688 66.097656 C 50.019531 65.566406 48.609375 65.035156 47.203125 64.492188 C 47.042969 64.429688 46.878906 64.367188 46.71875 64.308594 C 46.496094 64.222656 46.269531 64.132812 46.046875 64.046875 C 45.945312 64.007812 45.945312 64.007812 45.847656 63.972656 C 44.898438 63.601562 44.898438 63.601562 44.574219 63.246094 C 44.433594 62.875 44.445312 62.515625 44.445312 62.125 C 44.445312 62.039062 44.445312 61.953125 44.445312 61.867188 C 44.445312 61.6875 44.445312 61.507812 44.445312 61.328125 C 44.445312 61.054688 44.445312 60.777344 44.441406 60.503906 C 44.441406 60.328125 44.441406 60.15625 44.441406 59.980469 C 44.441406 59.898438 44.441406 59.816406 44.4375 59.734375 C 44.441406 59.371094 44.445312 59.160156 44.640625 58.847656 C 44.832031 58.671875 45.003906 58.5625 45.238281 58.453125 C 45.367188 58.390625 45.367188 58.390625 45.496094 58.328125 C 45.601562 58.28125 45.703125 58.234375 45.804688 58.1875 C 45.871094 58.160156 45.933594 58.132812 45.996094 58.101562 C 46.429688 57.90625 46.859375 57.714844 47.292969 57.523438 C 47.292969 57.46875 47.292969 57.414062 47.292969 57.359375 C 47.234375 57.332031 47.175781 57.300781 47.113281 57.273438 C 46.839844 57.144531 46.570312 57.015625 46.296875 56.886719 C 46.15625 56.820312 46.15625 56.820312 46.011719 56.753906 C 44.679688 56.117188 44.679688 56.117188 44.484375 55.617188 C 44.460938 55.425781 44.460938 55.425781 44.457031 55.210938 C 44.457031 55.132812 44.457031 55.050781 44.453125 54.96875 C 44.453125 54.882812 44.453125 54.800781 44.453125 54.710938 C 44.453125 54.621094 44.449219 54.535156 44.449219 54.441406 C 44.449219 54.253906 44.449219 54.066406 44.449219 53.878906 C 44.445312 53.59375 44.441406 53.308594 44.4375 53.019531 C 44.4375 52.839844 44.4375 52.65625 44.4375 52.472656 C 44.433594 52.390625 44.433594 52.304688 44.433594 52.214844 C 44.4375 51.550781 44.4375 51.550781 44.664062 51.253906 C 44.886719 51.058594 45.066406 50.9375 45.339844 50.824219 C 45.425781 50.785156 45.507812 50.75 45.59375 50.714844 C 45.679688 50.679688 45.765625 50.644531 45.851562 50.609375 C 45.980469 50.554688 45.980469 50.554688 46.113281 50.496094 C 46.792969 50.210938 46.792969 50.210938 47.128906 50.136719 C 46.894531 49.878906 46.683594 49.730469 46.363281 49.589844 C 46.28125 49.550781 46.199219 49.515625 46.113281 49.476562 C 45.941406 49.398438 45.765625 49.320312 45.59375 49.242188 C 45.507812 49.207031 45.425781 49.167969 45.339844 49.128906 C 45.265625 49.09375 45.191406 49.0625 45.113281 49.027344 C 44.835938 48.851562 44.628906 48.6875 44.484375 48.394531 C 44.425781 48.074219 44.429688 47.757812 44.433594 47.433594 C 44.433594 47.339844 44.433594 47.25 44.433594 47.152344 C 44.433594 46.960938 44.4375 46.765625 44.4375 46.570312 C 44.441406 46.273438 44.441406 45.976562 44.441406 45.675781 C 44.441406 45.488281 44.441406 45.296875 44.445312 45.109375 C 44.445312 45.019531 44.445312 44.929688 44.445312 44.839844 C 44.457031 44.070312 44.457031 44.070312 44.730469 43.746094 C 45.164062 43.382812 45.675781 43.242188 46.203125 43.070312 C 46.972656 42.8125 47.726562 42.53125 48.476562 42.226562 C 49.078125 41.980469 49.667969 41.753906 50.292969 41.574219 C 50.609375 41.476562 50.90625 41.34375 51.210938 41.210938 C 52.085938 40.851562 52.980469 40.535156 53.878906 40.242188 C 54.195312 40.140625 54.496094 40.023438 54.804688 39.890625 C 55.226562 39.707031 55.65625 39.558594 56.09375 39.417969 C 56.511719 39.28125 56.914062 39.113281 57.320312 38.941406 C 57.53125 38.855469 57.738281 38.785156 57.960938 38.722656 C 58.261719 38.636719 58.542969 38.53125 58.828125 38.40625 C 59.316406 38.195312 59.8125 38.03125 60.316406 37.863281 C 60.644531 37.757812 60.964844 37.644531 61.28125 37.515625 C 61.347656 37.488281 61.410156 37.464844 61.472656 37.4375 C 61.632812 37.375 61.789062 37.308594 61.949219 37.242188 C 63.195312 36.761719 64.421875 36.785156 65.65625 37.289062 Z M 65.65625 37.289062 "/>
<path style=" stroke:none;fill-rule:nonzero;fill:rgb(39.215687%,59.215689%,40.000001%);fill-opacity:1;" d="M 66.171875 12.351562 C 66.386719 12.464844 66.601562 12.578125 66.816406 12.691406 C 66.898438 12.734375 66.898438 12.734375 66.980469 12.777344 C 67.523438 13.0625 68.070312 13.335938 68.621094 13.609375 C 68.917969 13.757812 69.21875 13.910156 69.515625 14.058594 C 69.578125 14.089844 69.636719 14.121094 69.699219 14.152344 C 70.921875 14.761719 72.140625 15.371094 73.339844 16.019531 C 73.550781 16.132812 73.761719 16.25 73.976562 16.363281 C 74.023438 16.390625 74.074219 16.417969 74.125 16.445312 C 74.488281 16.636719 74.851562 16.824219 75.21875 17.007812 C 75.386719 17.089844 75.554688 17.171875 75.71875 17.257812 C 75.847656 17.320312 75.976562 17.386719 76.105469 17.449219 C 76.316406 17.554688 76.527344 17.660156 76.738281 17.769531 C 76.804688 17.800781 76.871094 17.832031 76.9375 17.867188 C 77.523438 18.167969 77.917969 18.539062 78.132812 19.175781 C 78.15625 19.414062 78.15625 19.414062 78.15625 19.679688 C 78.15625 19.78125 78.15625 19.882812 78.15625 19.988281 C 78.15625 20.101562 78.15625 20.210938 78.15625 20.324219 C 78.15625 20.441406 78.160156 20.5625 78.160156 20.679688 C 78.160156 21 78.160156 21.320312 78.160156 21.640625 C 78.160156 21.910156 78.160156 22.179688 78.160156 22.449219 C 78.160156 23.082031 78.160156 23.714844 78.160156 24.347656 C 78.160156 25 78.160156 25.652344 78.164062 26.304688 C 78.164062 26.867188 78.164062 27.425781 78.164062 27.988281 C 78.164062 28.324219 78.164062 28.65625 78.167969 28.992188 C 78.167969 29.308594 78.167969 29.621094 78.164062 29.9375 C 78.164062 30.050781 78.164062 30.167969 78.167969 30.28125 C 78.171875 31.039062 78.128906 31.582031 77.710938 32.226562 C 77.5 32.429688 77.40625 32.5 77.152344 32.601562 C 76.648438 32.820312 76.160156 33.070312 75.667969 33.316406 C 75.578125 33.363281 75.488281 33.410156 75.394531 33.457031 C 74.847656 33.730469 74.847656 33.730469 74.304688 34.007812 C 74.21875 34.050781 74.128906 34.09375 74.039062 34.140625 C 73.921875 34.199219 73.921875 34.199219 73.804688 34.261719 C 73.605469 34.355469 73.402344 34.441406 73.195312 34.519531 C 72.761719 34.6875 72.351562 34.898438 71.9375 35.113281 C 71.574219 35.300781 71.207031 35.457031 70.828125 35.605469 C 70.449219 35.757812 70.078125 35.921875 69.707031 36.082031 C 69.554688 36.148438 69.402344 36.214844 69.25 36.28125 C 69.183594 36.308594 69.117188 36.339844 69.046875 36.367188 C 68.128906 36.75 67.269531 36.46875 66.394531 36.109375 C 66.277344 36.066406 66.160156 36.019531 66.042969 35.980469 C 65.867188 35.914062 65.699219 35.84375 65.527344 35.773438 C 65.453125 35.742188 65.382812 35.714844 65.308594 35.683594 C 65.242188 35.65625 65.179688 35.628906 65.113281 35.597656 C 63.539062 35.050781 61.972656 35.683594 60.53125 36.289062 C 59.738281 36.59375 58.894531 36.535156 58.128906 36.203125 C 57.898438 36.097656 57.671875 35.988281 57.445312 35.878906 C 57.320312 35.824219 57.199219 35.765625 57.074219 35.710938 C 56.828125 35.59375 56.578125 35.480469 56.332031 35.363281 C 55.8125 35.117188 55.285156 34.886719 54.761719 34.65625 C 54.117188 34.367188 53.472656 34.074219 52.835938 33.773438 C 52.285156 33.515625 51.722656 33.273438 51.167969 33.03125 C 49.5 32.300781 49.5 32.300781 49.113281 31.542969 C 49.023438 31.265625 49.019531 31.003906 49.019531 30.710938 C 49.015625 30.609375 49.015625 30.507812 49.015625 30.402344 C 49.015625 30.289062 49.015625 30.175781 49.015625 30.0625 C 49.015625 29.945312 49.011719 29.824219 49.011719 29.707031 C 49.011719 29.316406 49.007812 28.921875 49.007812 28.53125 C 49.007812 28.398438 49.007812 28.261719 49.007812 28.128906 C 49.003906 27.566406 49.003906 27.007812 49.003906 26.445312 C 49 25.640625 49 24.839844 48.992188 24.035156 C 48.992188 23.472656 48.988281 22.90625 48.988281 22.339844 C 48.988281 22.003906 48.988281 21.664062 48.984375 21.328125 C 48.980469 21.011719 48.980469 20.695312 48.980469 20.375 C 48.980469 20.261719 48.980469 20.144531 48.980469 20.027344 C 48.972656 19.363281 48.992188 18.859375 49.445312 18.34375 C 49.84375 17.941406 50.320312 17.710938 50.824219 17.457031 C 50.996094 17.371094 51.164062 17.28125 51.335938 17.191406 C 51.421875 17.148438 51.507812 17.105469 51.59375 17.0625 C 51.953125 16.875 52.308594 16.6875 52.664062 16.496094 C 53.347656 16.132812 54.039062 15.785156 54.734375 15.4375 C 55.617188 15 56.5 14.554688 57.371094 14.089844 C 57.90625 13.804688 58.449219 13.53125 58.996094 13.261719 C 59.46875 13.023438 59.941406 12.777344 60.410156 12.527344 C 60.941406 12.246094 61.472656 11.96875 62.007812 11.699219 C 62.070312 11.667969 62.128906 11.636719 62.195312 11.601562 C 62.253906 11.574219 62.3125 11.542969 62.371094 11.515625 C 62.421875 11.488281 62.472656 11.464844 62.523438 11.4375 C 63.78125 10.890625 65.082031 11.773438 66.171875 12.351562 Z M 66.171875 12.351562 "/>
<path style=" stroke:none;fill-rule:nonzero;fill:rgb(59.215689%,61.56863%,65.490198%);fill-opacity:1;" d="M 46.882812 57.773438 C 46.882812 57.828125 46.882812 57.882812 46.882812 57.9375 C 46.949219 57.945312 47.019531 57.953125 47.09375 57.964844 C 47.410156 58.03125 47.664062 58.15625 47.945312 58.308594 C 48.753906 58.726562 49.589844 59.070312 50.433594 59.414062 C 50.675781 59.511719 50.914062 59.613281 51.15625 59.710938 C 52.027344 60.070312 52.902344 60.425781 53.777344 60.777344 C 53.871094 60.8125 53.871094 60.8125 53.964844 60.851562 C 54.097656 60.902344 54.226562 60.957031 54.359375 61.007812 C 54.707031 61.148438 55.058594 61.289062 55.402344 61.433594 C 56.230469 61.78125 57.054688 62.109375 57.902344 62.390625 C 58.273438 62.515625 58.621094 62.664062 58.96875 62.84375 C 59.164062 62.945312 59.367188 63.019531 59.574219 63.097656 C 60.207031 63.335938 60.832031 63.601562 61.453125 63.867188 C 63.539062 64.753906 65.164062 64.472656 67.21875 63.667969 C 67.324219 63.625 67.429688 63.585938 67.535156 63.546875 C 67.707031 63.480469 67.878906 63.414062 68.050781 63.347656 C 68.230469 63.277344 68.410156 63.210938 68.589844 63.144531 C 69.066406 62.964844 69.527344 62.761719 69.992188 62.5625 C 70.597656 62.300781 71.199219 62.046875 71.820312 61.820312 C 72.296875 61.644531 72.757812 61.453125 73.222656 61.246094 C 73.699219 61.03125 74.179688 60.832031 74.664062 60.636719 C 75.347656 60.359375 76.027344 60.070312 76.703125 59.765625 C 76.929688 59.667969 77.15625 59.570312 77.378906 59.46875 C 77.46875 59.433594 77.554688 59.394531 77.644531 59.355469 C 77.824219 59.277344 78 59.199219 78.179688 59.121094 C 78.597656 58.9375 79.011719 58.746094 79.417969 58.535156 C 79.488281 58.5 79.558594 58.464844 79.628906 58.425781 C 79.757812 58.359375 79.886719 58.292969 80.011719 58.21875 C 80.261719 58.089844 80.4375 58.007812 80.71875 58.050781 C 80.910156 58.113281 81.09375 58.1875 81.277344 58.273438 C 81.386719 58.3125 81.496094 58.351562 81.609375 58.394531 C 81.714844 58.433594 81.816406 58.472656 81.921875 58.515625 C 82.003906 58.546875 82.003906 58.546875 82.082031 58.574219 C 82.410156 58.703125 82.640625 58.8125 82.847656 59.101562 C 82.898438 59.386719 82.890625 59.664062 82.890625 59.953125 C 82.890625 60.035156 82.890625 60.117188 82.890625 60.203125 C 82.890625 60.378906 82.886719 60.554688 82.886719 60.730469 C 82.882812 61 82.882812 61.265625 82.886719 61.535156 C 82.886719 61.707031 82.882812 61.875 82.882812 62.046875 C 82.882812 62.128906 82.882812 62.207031 82.882812 62.289062 C 82.878906 62.726562 82.851562 63.046875 82.601562 63.417969 C 82.363281 63.644531 82.109375 63.738281 81.804688 63.847656 C 81.714844 63.878906 81.625 63.910156 81.535156 63.941406 C 81.441406 63.976562 81.347656 64.007812 81.25 64.039062 C 80.429688 64.328125 80.429688 64.328125 79.625 64.664062 C 79.648438 64.71875 79.675781 64.773438 79.707031 64.828125 C 79.652344 64.847656 79.597656 64.863281 79.542969 64.882812 C 78.742188 65.144531 77.953125 65.441406 77.164062 65.742188 C 77.015625 65.796875 76.871094 65.851562 76.726562 65.90625 C 76.429688 66.019531 76.132812 66.132812 75.835938 66.242188 C 75.253906 66.464844 74.671875 66.683594 74.085938 66.902344 C 73.820312 67.003906 73.554688 67.101562 73.289062 67.203125 C 73.113281 67.269531 72.9375 67.335938 72.761719 67.402344 C 72.710938 67.421875 72.660156 67.441406 72.609375 67.460938 C 72.171875 67.625 71.738281 67.785156 71.300781 67.949219 C 71.066406 68.035156 70.832031 68.121094 70.597656 68.210938 C 70.4375 68.269531 70.28125 68.328125 70.121094 68.386719 C 69.003906 68.800781 69.003906 68.800781 67.898438 69.242188 C 67.300781 69.484375 66.695312 69.703125 66.085938 69.90625 C 65.96875 69.945312 65.847656 69.984375 65.730469 70.027344 C 64.574219 70.4375 63.429688 70.621094 62.257812 70.132812 C 62.132812 70.082031 62.007812 70.035156 61.882812 69.984375 C 61.8125 69.957031 61.746094 69.929688 61.671875 69.902344 C 61.382812 69.789062 61.09375 69.6875 60.800781 69.585938 C 59.890625 69.265625 58.984375 68.925781 58.078125 68.589844 C 57.90625 68.527344 57.738281 68.464844 57.566406 68.398438 C 56.898438 68.152344 56.230469 67.902344 55.5625 67.652344 C 55.453125 67.609375 55.34375 67.570312 55.234375 67.527344 C 55.152344 67.496094 55.152344 67.496094 55.066406 67.464844 C 54.945312 67.417969 54.820312 67.371094 54.699219 67.324219 C 54.34375 67.191406 53.988281 67.058594 53.628906 66.925781 C 52.898438 66.648438 52.164062 66.371094 51.429688 66.097656 C 50.019531 65.566406 48.609375 65.035156 47.203125 64.492188 C 47.042969 64.429688 46.878906 64.367188 46.71875 64.308594 C 46.496094 64.222656 46.269531 64.132812 46.046875 64.046875 C 45.980469 64.023438 45.914062 63.996094 45.847656 63.972656 C 44.898438 63.601562 44.898438 63.601562 44.574219 63.246094 C 44.433594 62.875 44.445312 62.515625 44.445312 62.125 C 44.445312 62.039062 44.445312 61.953125 44.445312 61.867188 C 44.445312 61.6875 44.445312 61.507812 44.445312 61.328125 C 44.445312 61.054688 44.445312 60.777344 44.441406 60.503906 C 44.441406 60.328125 44.441406 60.15625 44.441406 59.980469 C 44.441406 59.898438 44.441406 59.816406 44.4375 59.734375 C 44.441406 59.371094 44.445312 59.160156 44.636719 58.847656 C 44.839844 58.664062 45.027344 58.554688 45.273438 58.4375 C 45.359375 58.394531 45.449219 58.355469 45.535156 58.3125 C 45.625 58.269531 45.714844 58.230469 45.804688 58.1875 C 45.933594 58.128906 45.933594 58.128906 46.066406 58.066406 C 46.6875 57.773438 46.6875 57.773438 46.882812 57.773438 Z M 46.882812 57.773438 "/>
<path style=" stroke:none;fill-rule:nonzero;fill:rgb(98.823529%,98.823529%,98.823529%);fill-opacity:1;" d="M 56.636719 18.261719 C 57.972656 18.261719 59.3125 18.261719 60.6875 18.261719 C 61.421875 19.09375 61.421875 19.09375 61.722656 19.464844 C 62.003906 19.8125 62.292969 20.144531 62.589844 20.476562 C 62.773438 20.6875 62.949219 20.902344 63.121094 21.121094 C 63.421875 21.492188 63.738281 21.847656 64.058594 22.203125 C 64.25 22.417969 64.433594 22.640625 64.617188 22.867188 C 64.917969 23.242188 65.234375 23.605469 65.554688 23.960938 C 65.8125 24.242188 66.0625 24.53125 66.3125 24.820312 C 66.351562 24.867188 66.394531 24.914062 66.4375 24.964844 C 66.726562 25.296875 66.726562 25.296875 66.726562 25.484375 C 66.777344 25.484375 66.832031 25.484375 66.890625 25.484375 C 66.890625 23.101562 66.890625 20.71875 66.890625 18.261719 C 68.089844 18.261719 69.292969 18.261719 70.527344 18.261719 C 70.527344 22.371094 70.527344 26.480469 70.527344 30.710938 C 69.355469 30.710938 68.179688 30.710938 66.972656 30.710938 C 66.144531 29.789062 66.144531 29.789062 65.871094 29.445312 C 65.589844 29.097656 65.304688 28.757812 65.015625 28.417969 C 64.589844 27.925781 64.171875 27.421875 63.761719 26.917969 C 63.425781 26.503906 63.085938 26.097656 62.742188 25.695312 C 62.503906 25.414062 62.269531 25.128906 62.039062 24.839844 C 61.765625 24.503906 61.484375 24.175781 61.195312 23.851562 C 60.941406 23.570312 60.691406 23.28125 60.441406 22.992188 C 60.414062 25.539062 60.386719 28.089844 60.359375 30.710938 C 59.128906 30.710938 57.902344 30.710938 56.636719 30.710938 C 56.636719 26.605469 56.636719 22.496094 56.636719 18.261719 Z M 56.636719 18.261719 "/>
<path style=" stroke:none;fill-rule:nonzero;fill:rgb(65.490198%,67.843139%,71.372551%);fill-opacity:1;" d="M 79.625 24.15625 C 80.167969 24.332031 80.667969 24.535156 81.171875 24.804688 C 81.246094 24.84375 81.320312 24.882812 81.398438 24.921875 C 82.589844 25.566406 83.738281 26.324219 84.75 27.226562 C 84.828125 27.296875 84.910156 27.367188 84.992188 27.441406 C 86.007812 28.34375 86.859375 29.351562 87.644531 30.464844 C 87.679688 30.515625 87.71875 30.566406 87.753906 30.621094 C 88.304688 31.410156 88.761719 32.242188 89.203125 33.09375 C 89.230469 33.144531 89.257812 33.195312 89.285156 33.246094 C 89.617188 33.878906 89.890625 34.515625 90.121094 35.191406 C 90.195312 35.414062 90.28125 35.628906 90.371094 35.84375 C 90.875 37.101562 91.28125 38.566406 91.28125 39.925781 C 91.375 39.945312 91.46875 39.964844 91.5625 39.984375 C 92.402344 40.164062 93.199219 40.386719 94.007812 40.671875 C 94.15625 40.722656 94.300781 40.765625 94.449219 40.8125 C 94.753906 40.921875 94.753906 40.921875 94.917969 41.089844 C 94.898438 41.480469 94.804688 41.671875 94.527344 41.941406 C 94.460938 42.003906 94.398438 42.066406 94.332031 42.132812 C 94.230469 42.230469 94.230469 42.230469 94.128906 42.328125 C 94.0625 42.394531 94 42.457031 93.929688 42.523438 C 93.574219 42.871094 93.207031 43.210938 92.832031 43.535156 C 92.648438 43.695312 92.46875 43.859375 92.289062 44.023438 C 92.003906 44.285156 91.710938 44.535156 91.410156 44.777344 C 91.097656 45.03125 90.792969 45.296875 90.496094 45.570312 C 90.054688 45.976562 89.597656 46.359375 89.132812 46.734375 C 89.082031 46.773438 89.035156 46.808594 88.988281 46.847656 C 88.832031 46.972656 88.679688 47.09375 88.527344 47.214844 C 88.480469 47.253906 88.433594 47.292969 88.382812 47.332031 C 88.246094 47.4375 88.109375 47.542969 87.972656 47.648438 C 87.890625 47.710938 87.804688 47.777344 87.71875 47.84375 C 87.476562 47.976562 87.476562 47.976562 87.269531 47.96875 C 87.0625 47.894531 87.0625 47.894531 86.945312 47.742188 C 86.6875 47.179688 86.488281 46.609375 86.308594 46.015625 C 86.082031 45.28125 85.835938 44.558594 85.550781 43.84375 C 85.0625 42.597656 84.601562 41.339844 84.191406 40.066406 C 84.042969 39.613281 83.867188 39.175781 83.679688 38.738281 C 83.5625 38.445312 83.492188 38.160156 83.425781 37.851562 C 83.71875 37.886719 83.992188 37.929688 84.273438 38.011719 C 84.59375 38.101562 84.910156 38.164062 85.234375 38.21875 C 85.664062 38.296875 86.070312 38.390625 86.476562 38.542969 C 86.75 38.632812 87.027344 38.679688 87.308594 38.730469 C 87.476562 38.765625 87.476562 38.765625 87.644531 38.847656 C 86.941406 36.035156 85.625 33.660156 83.757812 31.460938 C 83.695312 31.382812 83.628906 31.308594 83.566406 31.230469 C 83.21875 30.824219 82.84375 30.476562 82.433594 30.132812 C 82.367188 30.070312 82.296875 30.007812 82.226562 29.945312 C 81.542969 29.347656 80.800781 28.875 80.027344 28.402344 C 79.890625 28.316406 79.757812 28.230469 79.625 28.140625 C 79.59375 27.96875 79.59375 27.96875 79.59375 27.753906 C 79.59375 27.675781 79.59375 27.59375 79.59375 27.511719 C 79.597656 27.425781 79.597656 27.339844 79.597656 27.25 C 79.597656 27.164062 79.597656 27.074219 79.601562 26.984375 C 79.601562 26.703125 79.605469 26.417969 79.609375 26.136719 C 79.609375 25.945312 79.609375 25.753906 79.609375 25.5625 C 79.613281 25.09375 79.617188 24.625 79.625 24.15625 Z M 79.625 24.15625 "/>
<path style=" stroke:none;fill-rule:nonzero;fill:rgb(60.392159%,63.137257%,67.058825%);fill-opacity:1;" d="M 47.460938 23.078125 C 47.460938 24.664062 47.460938 26.253906 47.460938 27.890625 C 46.996094 28.136719 46.53125 28.382812 46.054688 28.636719 C 43.03125 30.503906 40.621094 33.558594 39.539062 36.964844 C 39.46875 37.175781 39.398438 37.375 39.320312 37.578125 C 39.152344 38.019531 39.046875 38.46875 38.9375 38.925781 C 38.917969 39.007812 38.894531 39.09375 38.875 39.179688 C 38.585938 40.371094 38.5 41.550781 38.507812 42.769531 C 38.507812 42.96875 38.507812 43.164062 38.507812 43.359375 C 38.507812 44.5625 38.652344 45.683594 38.980469 46.84375 C 39.003906 46.933594 39.027344 47.023438 39.054688 47.117188 C 39.359375 48.230469 39.359375 48.230469 39.769531 49.304688 C 39.820312 49.453125 39.871094 49.597656 39.921875 49.742188 C 40.070312 50.167969 40.273438 50.550781 40.5 50.941406 C 40.597656 51.132812 40.597656 51.132812 40.597656 51.382812 C 40.652344 51.382812 40.707031 51.382812 40.761719 51.382812 C 40.820312 51.492188 40.820312 51.492188 40.882812 51.601562 C 41.421875 52.585938 42.066406 53.460938 42.828125 54.289062 C 42.464844 54.289062 42.253906 54.074219 41.976562 53.863281 C 41.890625 53.796875 41.890625 53.796875 41.800781 53.726562 C 40.238281 52.511719 38.742188 50.785156 37.875 48.996094 C 37.699219 48.636719 37.699219 48.636719 37.515625 48.28125 C 36.886719 47.078125 36.445312 45.757812 36.171875 44.429688 C 36.136719 44.261719 36.09375 44.097656 36.054688 43.933594 C 35.753906 42.734375 35.695312 41.558594 35.691406 40.328125 C 35.691406 40.257812 35.691406 40.191406 35.691406 40.125 C 35.691406 39.410156 35.710938 38.707031 35.792969 37.996094 C 35.800781 37.941406 35.804688 37.886719 35.8125 37.828125 C 35.859375 37.464844 35.945312 37.125 36.050781 36.773438 C 36.089844 36.554688 36.125 36.332031 36.15625 36.113281 C 36.660156 33.066406 38.308594 30.082031 40.347656 27.808594 C 40.40625 27.742188 40.40625 27.742188 40.464844 27.675781 C 41.230469 26.808594 42.074219 26.09375 42.996094 25.398438 C 43.058594 25.351562 43.121094 25.304688 43.1875 25.253906 C 46.136719 23.078125 46.136719 23.078125 47.460938 23.078125 Z M 47.460938 23.078125 "/>
<path style=" stroke:none;fill-rule:nonzero;fill:rgb(92.54902%,93.333334%,94.509804%);fill-opacity:1;" d="M 45.144531 51.632812 C 45.816406 51.652344 46.359375 51.839844 46.972656 52.101562 C 47.160156 52.179688 47.34375 52.257812 47.53125 52.332031 C 47.617188 52.371094 47.707031 52.40625 47.796875 52.445312 C 48.085938 52.5625 48.375 52.671875 48.667969 52.777344 C 49.300781 53.007812 49.917969 53.273438 50.535156 53.535156 C 51.472656 53.933594 52.410156 54.324219 53.351562 54.707031 C 53.484375 54.761719 53.617188 54.816406 53.746094 54.871094 C 54.417969 55.144531 55.085938 55.410156 55.777344 55.628906 C 56.023438 55.714844 56.246094 55.824219 56.472656 55.949219 C 56.722656 56.074219 56.980469 56.171875 57.242188 56.273438 C 57.476562 56.367188 57.707031 56.464844 57.941406 56.566406 C 58.398438 56.757812 58.859375 56.921875 59.332031 57.082031 C 59.542969 57.164062 59.730469 57.25 59.929688 57.351562 C 60.296875 57.539062 60.671875 57.679688 61.054688 57.820312 C 61.152344 57.855469 61.152344 57.855469 61.253906 57.894531 C 61.699219 58.054688 62.144531 58.207031 62.589844 58.355469 C 62.589844 58.410156 62.589844 58.464844 62.589844 58.519531 C 64.007812 58.695312 65.210938 58.699219 66.53125 58.109375 C 66.746094 58.011719 66.960938 57.921875 67.179688 57.832031 C 67.582031 57.664062 67.980469 57.496094 68.382812 57.324219 C 68.4375 57.300781 68.496094 57.273438 68.554688 57.25 C 68.796875 57.148438 69.035156 57.046875 69.273438 56.945312 C 70.199219 56.546875 71.125 56.167969 72.066406 55.808594 C 72.332031 55.703125 72.59375 55.589844 72.851562 55.472656 C 74.953125 54.535156 77.082031 53.671875 79.226562 52.84375 C 79.621094 52.691406 80.011719 52.539062 80.402344 52.378906 C 80.53125 52.328125 80.53125 52.328125 80.667969 52.273438 C 80.820312 52.210938 80.976562 52.148438 81.128906 52.085938 C 81.539062 51.917969 81.90625 51.832031 82.351562 51.796875 C 82.382812 52.042969 82.398438 52.21875 82.351562 52.460938 C 81.714844 53.230469 80.53125 53.601562 79.621094 53.96875 C 78.988281 54.222656 78.367188 54.5 77.742188 54.777344 C 76.90625 55.148438 76.066406 55.511719 75.222656 55.871094 C 75.125 55.910156 75.027344 55.953125 74.925781 55.996094 C 74.726562 56.082031 74.527344 56.167969 74.328125 56.253906 C 73.726562 56.511719 73.726562 56.511719 73.132812 56.796875 C 72.878906 56.925781 72.628906 57.03125 72.363281 57.128906 C 71.894531 57.304688 71.4375 57.496094 70.976562 57.691406 C 70.910156 57.71875 70.839844 57.75 70.769531 57.777344 C 70.636719 57.835938 70.503906 57.890625 70.375 57.949219 C 69.601562 58.273438 68.828125 58.59375 68.054688 58.910156 C 67.640625 59.078125 67.230469 59.25 66.816406 59.421875 C 66.675781 59.480469 66.535156 59.539062 66.394531 59.601562 C 66.335938 59.625 66.28125 59.648438 66.222656 59.671875 C 66.0625 59.734375 65.898438 59.792969 65.734375 59.847656 C 65.664062 59.871094 65.59375 59.894531 65.523438 59.917969 C 64.039062 60.359375 62.550781 60.097656 61.207031 59.367188 C 60.757812 59.128906 60.277344 58.960938 59.792969 58.804688 C 59.511719 58.714844 59.289062 58.59375 59.035156 58.4375 C 58.835938 58.351562 58.636719 58.273438 58.4375 58.195312 C 58.210938 58.105469 57.988281 58.011719 57.765625 57.917969 C 57.445312 57.785156 57.128906 57.65625 56.808594 57.527344 C 56.734375 57.5 56.664062 57.46875 56.589844 57.441406 C 56.445312 57.382812 56.300781 57.328125 56.160156 57.269531 C 55.78125 57.121094 55.421875 56.957031 55.058594 56.773438 C 54.800781 56.644531 54.53125 56.546875 54.261719 56.449219 C 53.695312 56.242188 53.140625 56.015625 52.585938 55.78125 C 52.421875 55.710938 52.253906 55.644531 52.089844 55.574219 C 52.007812 55.539062 51.925781 55.503906 51.839844 55.46875 C 51.683594 55.402344 51.523438 55.335938 51.367188 55.269531 C 50.816406 55.042969 50.269531 54.8125 49.71875 54.578125 C 49.335938 54.414062 48.949219 54.253906 48.5625 54.09375 C 48.335938 54 48.109375 53.90625 47.882812 53.8125 C 47.769531 53.765625 47.660156 53.71875 47.546875 53.675781 C 45.6875 52.914062 45.6875 52.914062 45.144531 52.296875 C 45.101562 52.0625 45.128906 51.867188 45.144531 51.632812 Z M 45.144531 51.632812 "/>
<path style=" stroke:none;fill-rule:nonzero;fill:rgb(92.941177%,93.725491%,94.509804%);fill-opacity:1;" d="M 45.226562 59.101562 C 45.921875 59.222656 46.578125 59.46875 47.230469 59.722656 C 47.382812 59.78125 47.382812 59.78125 47.535156 59.839844 C 49.785156 60.710938 52.023438 61.609375 54.257812 62.511719 C 54.324219 62.539062 54.390625 62.566406 54.457031 62.59375 C 54.59375 62.648438 54.730469 62.703125 54.863281 62.757812 C 55.230469 62.90625 55.597656 63.046875 55.96875 63.183594 C 56.53125 63.390625 57.070312 63.621094 57.609375 63.878906 C 57.988281 64.050781 58.378906 64.183594 58.769531 64.320312 C 59.046875 64.417969 59.3125 64.535156 59.578125 64.660156 C 59.933594 64.8125 60.296875 64.933594 60.660156 65.058594 C 60.929688 65.160156 61.179688 65.277344 61.433594 65.410156 C 61.707031 65.53125 61.980469 65.636719 62.261719 65.742188 C 62.335938 65.773438 62.410156 65.804688 62.488281 65.835938 C 63.828125 66.347656 65.195312 66.023438 66.476562 65.492188 C 66.558594 65.460938 66.558594 65.460938 66.644531 65.425781 C 67.195312 65.210938 67.738281 64.976562 68.285156 64.746094 C 68.605469 64.609375 68.925781 64.476562 69.25 64.347656 C 69.617188 64.199219 69.980469 64.046875 70.347656 63.894531 C 70.40625 63.871094 70.464844 63.847656 70.523438 63.820312 C 70.648438 63.769531 70.769531 63.714844 70.894531 63.664062 C 72.214844 63.109375 73.542969 62.566406 74.875 62.035156 C 75.75 61.6875 76.625 61.335938 77.496094 60.980469 C 77.664062 60.910156 77.832031 60.839844 78.003906 60.773438 C 78.566406 60.542969 79.128906 60.3125 79.691406 60.078125 C 79.792969 60.039062 79.894531 59.996094 79.996094 59.953125 C 80.1875 59.875 80.378906 59.796875 80.566406 59.71875 C 81.769531 59.222656 81.769531 59.222656 82.269531 59.265625 C 82.351562 59.351562 82.351562 59.351562 82.382812 59.578125 C 82.339844 59.941406 82.207031 60.027344 81.9375 60.265625 C 81.691406 60.410156 81.691406 60.410156 81.402344 60.554688 C 81.316406 60.59375 81.316406 60.59375 81.230469 60.636719 C 79.480469 61.480469 77.6875 62.242188 75.902344 63.003906 C 75.730469 63.078125 75.558594 63.152344 75.382812 63.222656 C 74.589844 63.5625 73.792969 63.898438 72.992188 64.234375 C 72.929688 64.261719 72.863281 64.289062 72.792969 64.316406 C 72.46875 64.449219 72.144531 64.585938 71.820312 64.722656 C 71.183594 64.984375 70.554688 65.257812 69.929688 65.554688 C 69.632812 65.691406 69.328125 65.800781 69.015625 65.910156 C 68.695312 66.027344 68.382812 66.160156 68.066406 66.292969 C 67.664062 66.464844 67.257812 66.625 66.851562 66.785156 C 66.675781 66.855469 66.503906 66.929688 66.328125 67 C 66.132812 67.082031 65.933594 67.160156 65.734375 67.234375 C 65.667969 67.261719 65.605469 67.285156 65.539062 67.3125 C 63.992188 67.828125 62.527344 67.382812 61.097656 66.757812 C 60.832031 66.644531 60.566406 66.542969 60.296875 66.441406 C 60.007812 66.332031 59.726562 66.21875 59.453125 66.074219 C 59.164062 65.921875 58.863281 65.8125 58.554688 65.707031 C 58.039062 65.523438 57.546875 65.3125 57.050781 65.078125 C 56.324219 64.742188 55.597656 64.445312 54.84375 64.1875 C 54.449219 64.050781 54.074219 63.890625 53.703125 63.707031 C 53.292969 63.507812 52.878906 63.339844 52.445312 63.195312 C 51.496094 62.871094 50.582031 62.457031 49.660156 62.054688 C 49.277344 61.886719 48.890625 61.722656 48.503906 61.5625 C 45.472656 60.285156 45.472656 60.285156 45.144531 59.847656 C 45.085938 59.597656 45.105469 59.445312 45.144531 59.183594 C 45.171875 59.15625 45.199219 59.128906 45.226562 59.101562 Z M 45.226562 59.101562 "/>
<path style=" stroke:none;fill-rule:nonzero;fill:rgb(92.941177%,93.725491%,94.509804%);fill-opacity:1;" d="M 45.476562 44.242188 C 45.886719 44.371094 46.273438 44.511719 46.664062 44.695312 C 47.023438 44.863281 47.386719 45.003906 47.761719 45.136719 C 48.125 45.269531 48.480469 45.417969 48.835938 45.5625 C 49.363281 45.777344 49.894531 45.980469 50.4375 46.167969 C 50.898438 46.328125 51.351562 46.5 51.800781 46.691406 C 52.203125 46.863281 52.605469 47.03125 53.007812 47.195312 C 53.085938 47.226562 53.160156 47.257812 53.238281 47.289062 C 53.738281 47.492188 54.234375 47.695312 54.734375 47.894531 C 54.84375 47.9375 54.949219 47.980469 55.058594 48.023438 C 55.210938 48.085938 55.363281 48.148438 55.515625 48.210938 C 55.742188 48.300781 55.96875 48.390625 56.191406 48.480469 C 56.5 48.605469 56.804688 48.726562 57.117188 48.84375 C 58.121094 49.214844 58.121094 49.214844 58.601562 49.441406 C 59.0625 49.660156 59.542969 49.8125 60.027344 49.96875 C 60.441406 50.113281 60.835938 50.285156 61.238281 50.457031 C 62.898438 51.179688 64.027344 51.445312 65.746094 50.765625 C 65.914062 50.695312 66.082031 50.628906 66.25 50.558594 C 66.539062 50.445312 66.828125 50.339844 67.121094 50.242188 C 67.449219 50.125 67.761719 50 68.074219 49.851562 C 68.511719 49.644531 68.957031 49.484375 69.414062 49.332031 C 69.738281 49.222656 70.042969 49.101562 70.351562 48.957031 C 71.023438 48.644531 71.71875 48.382812 72.410156 48.113281 C 72.558594 48.054688 72.710938 47.996094 72.859375 47.9375 C 74.015625 47.488281 75.171875 47.039062 76.332031 46.59375 C 77.132812 46.285156 77.933594 45.972656 78.734375 45.65625 C 79.378906 45.398438 80.023438 45.144531 80.671875 44.902344 C 80.730469 44.878906 80.792969 44.855469 80.851562 44.832031 C 81.6875 44.523438 81.6875 44.523438 82.101562 44.492188 C 82.269531 44.65625 82.269531 44.65625 82.273438 44.886719 C 82.125 45.34375 81.746094 45.574219 81.34375 45.808594 C 80.042969 46.40625 78.714844 46.941406 77.390625 47.480469 C 77.324219 47.507812 77.253906 47.535156 77.1875 47.5625 C 76.578125 47.8125 75.972656 48.058594 75.363281 48.304688 C 74.6875 48.578125 74.011719 48.855469 73.339844 49.140625 C 72.804688 49.363281 72.269531 49.585938 71.730469 49.800781 C 71.25 49.996094 70.769531 50.203125 70.289062 50.402344 C 69.503906 50.734375 68.710938 51.054688 67.917969 51.363281 C 67.789062 51.410156 67.660156 51.460938 67.53125 51.511719 C 67.46875 51.535156 67.402344 51.5625 67.339844 51.585938 C 66.996094 51.71875 66.660156 51.863281 66.328125 52.019531 C 65.910156 52.21875 65.476562 52.351562 65.035156 52.476562 C 64.832031 52.523438 64.832031 52.523438 64.742188 52.625 C 63.515625 52.710938 62.414062 52.625 61.351562 51.960938 C 61.222656 51.90625 61.097656 51.851562 60.96875 51.800781 C 60.894531 51.773438 60.824219 51.746094 60.75 51.714844 C 60.527344 51.632812 60.300781 51.550781 60.074219 51.46875 C 59.679688 51.328125 59.304688 51.160156 58.925781 50.984375 C 58.648438 50.859375 58.371094 50.746094 58.089844 50.636719 C 57.875 50.550781 57.660156 50.460938 57.449219 50.371094 C 56.867188 50.125 56.277344 49.898438 55.691406 49.671875 C 55.210938 49.484375 54.746094 49.285156 54.277344 49.070312 C 54.023438 48.949219 53.761719 48.835938 53.5 48.726562 C 53.414062 48.6875 53.324219 48.648438 53.234375 48.613281 C 52.546875 48.316406 51.851562 48.03125 51.15625 47.753906 C 50.433594 47.46875 49.714844 47.175781 49.011719 46.839844 C 48.78125 46.734375 48.546875 46.644531 48.308594 46.558594 C 47.734375 46.339844 47.179688 46.078125 46.628906 45.816406 C 46.535156 45.773438 46.445312 45.730469 46.351562 45.683594 C 46.261719 45.644531 46.175781 45.601562 46.085938 45.558594 C 46.007812 45.519531 45.929688 45.484375 45.851562 45.445312 C 45.628906 45.316406 45.472656 45.191406 45.308594 44.992188 C 45.277344 44.6875 45.277344 44.6875 45.308594 44.410156 C 45.363281 44.355469 45.417969 44.300781 45.476562 44.242188 Z M 45.476562 44.242188 "/>
<path style=" stroke:none;fill-rule:nonzero;fill:rgb(63.137257%,81.176472%,62.352943%);fill-opacity:1;" d="M 64.195312 13.0625 C 64.480469 13.195312 64.753906 13.347656 65.03125 13.5 C 65.441406 13.726562 65.855469 13.9375 66.269531 14.152344 C 66.449219 14.246094 66.628906 14.339844 66.8125 14.4375 C 67.347656 14.714844 67.886719 14.988281 68.425781 15.257812 C 68.875 15.480469 69.320312 15.703125 69.769531 15.925781 C 69.820312 15.953125 69.871094 15.976562 69.921875 16.003906 C 70.570312 16.328125 71.210938 16.660156 71.847656 17 C 72.324219 17.253906 72.800781 17.496094 73.285156 17.734375 C 73.355469 17.765625 73.421875 17.800781 73.496094 17.835938 C 73.847656 18.015625 74.203125 18.1875 74.558594 18.363281 C 74.691406 18.429688 74.824219 18.496094 74.957031 18.5625 C 75.019531 18.589844 75.078125 18.621094 75.140625 18.648438 C 75.652344 18.90625 76.160156 19.191406 76.480469 19.671875 C 76.496094 19.933594 76.496094 19.933594 76.492188 20.226562 C 76.488281 20.324219 76.488281 20.421875 76.488281 20.523438 C 76.484375 20.636719 76.484375 20.636719 76.480469 20.75 C 76.242188 20.636719 76.011719 20.511719 75.78125 20.382812 C 74.800781 19.835938 73.808594 19.332031 72.792969 18.855469 C 72.394531 18.664062 72 18.464844 71.605469 18.265625 C 71.304688 18.113281 71.007812 17.964844 70.710938 17.8125 C 70.199219 17.558594 69.6875 17.300781 69.175781 17.042969 C 68.789062 16.847656 68.402344 16.652344 68.019531 16.460938 C 67.820312 16.359375 67.625 16.261719 67.425781 16.160156 C 65.761719 15.320312 65.761719 15.320312 64.078125 14.527344 C 64.011719 14.492188 63.941406 14.460938 63.871094 14.425781 C 63.371094 14.265625 63.007812 14.367188 62.554688 14.59375 C 62.492188 14.625 62.425781 14.660156 62.359375 14.695312 C 62.289062 14.730469 62.222656 14.765625 62.148438 14.800781 C 61.929688 14.910156 61.710938 15.023438 61.488281 15.136719 C 61.347656 15.210938 61.203125 15.285156 61.058594 15.355469 C 60.292969 15.746094 59.535156 16.148438 58.789062 16.570312 C 58.3125 16.84375 57.824219 17.089844 57.332031 17.332031 C 56.648438 17.671875 55.972656 18.035156 55.296875 18.390625 C 55.085938 18.5 54.875 18.609375 54.664062 18.722656 C 54.347656 18.886719 54.03125 19.058594 53.710938 19.226562 C 53.464844 19.359375 53.210938 19.488281 52.960938 19.617188 C 52.78125 19.714844 52.597656 19.808594 52.414062 19.90625 C 52.328125 19.949219 52.242188 19.996094 52.152344 20.042969 C 52.070312 20.085938 51.988281 20.128906 51.90625 20.171875 C 51.832031 20.210938 51.761719 20.246094 51.6875 20.285156 C 51.402344 20.5 51.359375 20.75 51.300781 21.089844 C 51.289062 21.175781 51.28125 21.265625 51.269531 21.359375 C 51.207031 21.800781 51.105469 22.171875 50.933594 22.578125 C 50.878906 22.578125 50.824219 22.578125 50.765625 22.578125 C 50.753906 22.175781 50.742188 21.773438 50.734375 21.375 C 50.730469 21.238281 50.726562 21.101562 50.722656 20.964844 C 50.675781 19.6875 50.675781 19.6875 51.015625 19.273438 C 51.324219 18.992188 51.671875 18.792969 52.046875 18.613281 C 52.191406 18.542969 52.332031 18.472656 52.472656 18.402344 C 52.546875 18.363281 52.617188 18.328125 52.695312 18.289062 C 52.984375 18.144531 53.273438 17.992188 53.558594 17.839844 C 54.527344 17.328125 55.503906 16.828125 56.476562 16.328125 C 57.316406 15.894531 58.15625 15.457031 58.992188 15.011719 C 59.253906 14.875 59.515625 14.742188 59.78125 14.609375 C 59.953125 14.519531 60.128906 14.425781 60.300781 14.335938 C 60.4375 14.261719 60.570312 14.191406 60.703125 14.121094 C 61.0625 13.933594 61.417969 13.742188 61.765625 13.539062 C 63.261719 12.6875 63.261719 12.6875 64.195312 13.0625 Z M 64.195312 13.0625 "/>
<path style=" stroke:none;fill-rule:nonzero;fill:rgb(47.058824%,49.803922%,53.725493%);fill-opacity:1;" d="M 81.609375 56.777344 C 81.519531 56.824219 81.429688 56.867188 81.339844 56.914062 C 81.222656 56.972656 81.109375 57.035156 80.992188 57.09375 C 80.933594 57.125 80.875 57.152344 80.816406 57.183594 C 80.460938 57.355469 80.460938 57.355469 80.285156 57.691406 C 80.378906 57.71875 80.378906 57.71875 80.476562 57.75 C 80.894531 57.898438 81.296875 58.078125 81.699219 58.261719 C 81.78125 58.296875 81.863281 58.332031 81.949219 58.371094 C 82.027344 58.40625 82.105469 58.441406 82.1875 58.476562 C 82.292969 58.527344 82.292969 58.527344 82.402344 58.574219 C 82.71875 58.753906 82.898438 58.921875 83.011719 59.265625 C 83.019531 59.386719 83.023438 59.503906 83.027344 59.625 C 83.027344 59.695312 83.027344 59.765625 83.027344 59.839844 C 83.027344 59.957031 83.027344 59.957031 83.03125 60.074219 C 83.03125 60.152344 83.03125 60.230469 83.03125 60.3125 C 83.03125 60.484375 83.03125 60.652344 83.03125 60.820312 C 83.035156 61.078125 83.035156 61.332031 83.039062 61.589844 C 83.039062 61.753906 83.039062 61.917969 83.039062 62.082031 C 83.042969 62.15625 83.042969 62.234375 83.042969 62.3125 C 83.042969 62.746094 83.003906 63.042969 82.765625 63.417969 C 82.152344 64.003906 81.21875 64.246094 80.433594 64.535156 C 80.375 64.554688 80.3125 64.578125 80.25 64.601562 C 79.816406 64.757812 79.816406 64.757812 79.539062 64.664062 C 80.214844 64.300781 80.929688 64.058594 81.652344 63.808594 C 81.75 63.773438 81.84375 63.738281 81.945312 63.703125 C 82.03125 63.671875 82.121094 63.640625 82.210938 63.609375 C 82.453125 63.492188 82.546875 63.398438 82.683594 63.167969 C 82.761719 62.933594 82.777344 62.789062 82.777344 62.546875 C 82.78125 62.433594 82.78125 62.433594 82.78125 62.316406 C 82.78125 62.234375 82.78125 62.152344 82.78125 62.070312 C 82.78125 61.984375 82.78125 61.902344 82.78125 61.816406 C 82.785156 61.636719 82.785156 61.460938 82.785156 61.285156 C 82.785156 61.011719 82.789062 60.738281 82.789062 60.46875 C 82.792969 60.296875 82.792969 60.125 82.792969 59.953125 C 82.792969 59.832031 82.792969 59.832031 82.796875 59.707031 C 82.792969 59.59375 82.792969 59.59375 82.792969 59.476562 C 82.792969 59.410156 82.796875 59.34375 82.796875 59.273438 C 82.757812 59.058594 82.6875 58.988281 82.515625 58.851562 C 82.226562 58.699219 81.925781 58.578125 81.621094 58.453125 C 81.542969 58.417969 81.460938 58.382812 81.375 58.34375 C 80.917969 58.144531 80.917969 58.144531 80.429688 58.148438 C 80.355469 58.191406 80.277344 58.230469 80.203125 58.273438 C 80.066406 58.335938 80.066406 58.335938 79.925781 58.398438 C 79.820312 58.449219 79.714844 58.5 79.609375 58.550781 C 78.09375 59.277344 76.554688 59.941406 75 60.582031 C 74.476562 60.796875 73.953125 61.015625 73.4375 61.25 C 72.960938 61.460938 72.480469 61.648438 71.992188 61.832031 C 71.585938 61.980469 71.183594 62.144531 70.78125 62.316406 C 70.382812 62.480469 69.980469 62.640625 69.582031 62.800781 C 69.386719 62.878906 69.191406 62.960938 69 63.042969 C 68.699219 63.171875 68.394531 63.289062 68.089844 63.402344 C 67.691406 63.550781 67.300781 63.699219 66.910156 63.863281 C 64.644531 64.796875 63.070312 64.628906 60.859375 63.714844 C 60.453125 63.542969 60.050781 63.363281 59.648438 63.175781 C 59.3125 63.023438 58.96875 62.890625 58.621094 62.753906 C 58.507812 62.710938 58.398438 62.664062 58.285156 62.621094 C 57.675781 62.382812 57.070312 62.148438 56.457031 61.917969 C 55.699219 61.636719 54.9375 61.347656 54.203125 61.011719 C 53.886719 60.867188 53.558594 60.742188 53.230469 60.621094 C 52.375 60.304688 51.527344 59.953125 50.683594 59.601562 C 50.59375 59.5625 50.507812 59.527344 50.414062 59.488281 C 48.484375 58.683594 48.484375 58.683594 47.601562 58.21875 C 47.363281 58.09375 47.144531 57.988281 46.882812 57.9375 C 46.964844 57.691406 46.964844 57.691406 47.132812 57.59375 C 47.214844 57.558594 47.214844 57.558594 47.292969 57.523438 C 47.292969 57.414062 47.292969 57.304688 47.292969 57.191406 C 47.886719 57.230469 48.394531 57.472656 48.9375 57.707031 C 49.042969 57.75 49.148438 57.792969 49.253906 57.839844 C 49.59375 57.980469 49.929688 58.125 50.269531 58.273438 C 50.390625 58.324219 50.511719 58.375 50.632812 58.425781 C 50.691406 58.453125 50.753906 58.476562 50.816406 58.503906 C 50.9375 58.554688 51.058594 58.605469 51.179688 58.660156 C 51.472656 58.785156 51.765625 58.910156 52.054688 59.035156 C 52.652344 59.289062 53.246094 59.535156 53.851562 59.761719 C 54.039062 59.835938 54.210938 59.914062 54.390625 60.007812 C 54.691406 60.167969 55.003906 60.285156 55.324219 60.398438 C 56.023438 60.660156 56.710938 60.949219 57.398438 61.242188 C 57.742188 61.386719 58.089844 61.535156 58.433594 61.679688 C 58.5 61.710938 58.566406 61.738281 58.636719 61.769531 C 59.738281 62.234375 60.839844 62.6875 61.953125 63.121094 C 62.023438 63.148438 62.09375 63.175781 62.164062 63.207031 C 64.351562 64.042969 66.25 63.164062 68.265625 62.277344 C 68.363281 62.234375 68.460938 62.1875 68.5625 62.144531 C 68.863281 62.007812 69.171875 61.886719 69.480469 61.765625 C 69.878906 61.605469 70.273438 61.433594 70.667969 61.265625 C 71.429688 60.941406 72.195312 60.617188 72.960938 60.296875 C 73.832031 59.929688 74.703125 59.558594 75.570312 59.183594 C 76.40625 58.824219 77.242188 58.46875 78.078125 58.117188 C 78.128906 58.09375 78.183594 58.070312 78.234375 58.050781 C 78.699219 57.855469 79.160156 57.660156 79.628906 57.472656 C 79.683594 57.453125 79.738281 57.429688 79.796875 57.40625 C 79.949219 57.34375 80.101562 57.285156 80.257812 57.222656 C 80.582031 57.089844 80.890625 56.929688 81.199219 56.757812 C 81.359375 56.695312 81.359375 56.695312 81.609375 56.777344 Z M 81.609375 56.777344 "/>
<path style=" stroke:none;fill-rule:nonzero;fill:rgb(46.666667%,49.411765%,52.941179%);fill-opacity:1;" d="M 81.773438 49.140625 C 81.855469 49.167969 81.9375 49.195312 82.019531 49.222656 C 81.46875 49.5 80.917969 49.777344 80.367188 50.054688 C 80.367188 50.109375 80.367188 50.164062 80.367188 50.21875 C 80.445312 50.257812 80.527344 50.292969 80.609375 50.332031 C 81.222656 50.617188 81.832031 50.90625 82.433594 51.214844 C 82.042969 51.347656 81.722656 51.101562 81.363281 50.929688 C 81.019531 50.765625 80.757812 50.660156 80.367188 50.71875 C 80.164062 50.796875 79.980469 50.882812 79.789062 50.980469 C 79.097656 51.324219 78.398438 51.632812 77.691406 51.9375 C 76.832031 52.304688 76.832031 52.304688 75.984375 52.6875 C 75.675781 52.828125 75.371094 52.960938 75.054688 53.078125 C 74.660156 53.230469 74.265625 53.382812 73.871094 53.539062 C 73.777344 53.578125 73.683594 53.617188 73.585938 53.652344 C 73.234375 53.796875 72.886719 53.941406 72.539062 54.089844 C 71.996094 54.316406 71.453125 54.539062 70.910156 54.765625 C 70.394531 54.980469 69.875 55.195312 69.359375 55.414062 C 68.855469 55.625 68.34375 55.832031 67.835938 56.035156 C 67.75 56.070312 67.664062 56.105469 67.574219 56.140625 C 64.339844 57.441406 62.367188 56.957031 59.226562 55.609375 C 58.589844 55.335938 57.945312 55.082031 57.292969 54.84375 C 56.535156 54.5625 55.785156 54.269531 55.046875 53.945312 C 54.570312 53.738281 54.089844 53.558594 53.597656 53.386719 C 53.117188 53.214844 52.640625 53.035156 52.1875 52.796875 C 51.824219 52.609375 51.441406 52.46875 51.058594 52.324219 C 50.339844 52.050781 49.632812 51.75 48.925781 51.449219 C 48.773438 51.382812 48.617188 51.316406 48.464844 51.25 C 47.640625 50.894531 47.640625 50.894531 47.246094 50.683594 C 46.980469 50.558594 46.871094 50.511719 46.589844 50.574219 C 46.496094 50.59375 46.402344 50.613281 46.300781 50.632812 C 46.300781 50.578125 46.300781 50.523438 46.300781 50.46875 C 46.410156 50.414062 46.515625 50.359375 46.621094 50.304688 C 46.683594 50.273438 46.742188 50.242188 46.800781 50.210938 C 46.964844 50.136719 46.964844 50.136719 47.128906 50.136719 C 46.847656 49.808594 46.523438 49.648438 46.136719 49.472656 C 46.136719 49.417969 46.136719 49.363281 46.136719 49.304688 C 46.78125 49.488281 47.402344 49.71875 48.023438 49.964844 C 48.171875 50.023438 48.171875 50.023438 48.324219 50.085938 C 49.359375 50.496094 50.386719 50.925781 51.414062 51.355469 C 51.644531 51.453125 51.875 51.546875 52.109375 51.640625 C 52.171875 51.667969 52.234375 51.695312 52.296875 51.71875 C 52.457031 51.785156 52.613281 51.847656 52.769531 51.914062 C 53.015625 52.015625 53.257812 52.125 53.5 52.238281 C 54.054688 52.492188 54.617188 52.71875 55.183594 52.945312 C 55.296875 52.988281 55.40625 53.03125 55.515625 53.074219 C 55.835938 53.203125 56.152344 53.332031 56.472656 53.457031 C 57.347656 53.804688 58.222656 54.160156 59.09375 54.527344 C 62.632812 56.125 62.632812 56.125 66.351562 55.558594 C 66.441406 55.523438 66.53125 55.484375 66.625 55.445312 C 66.722656 55.402344 66.820312 55.363281 66.917969 55.324219 C 67.628906 55.027344 68.339844 54.71875 69.042969 54.40625 C 69.519531 54.195312 70 54.003906 70.484375 53.820312 C 71.023438 53.609375 71.554688 53.382812 72.089844 53.15625 C 72.203125 53.109375 72.316406 53.058594 72.429688 53.011719 C 72.832031 52.84375 73.234375 52.671875 73.632812 52.5 C 73.894531 52.386719 74.160156 52.277344 74.421875 52.167969 C 74.519531 52.128906 74.613281 52.089844 74.710938 52.046875 C 74.761719 52.027344 74.8125 52.007812 74.863281 51.984375 C 75.609375 51.675781 76.351562 51.367188 77.09375 51.046875 C 78.25 50.550781 79.414062 50.085938 80.585938 49.628906 C 80.652344 49.601562 80.71875 49.574219 80.785156 49.546875 C 80.914062 49.5 81.039062 49.449219 81.164062 49.398438 C 81.472656 49.28125 81.472656 49.28125 81.773438 49.140625 Z M 81.773438 49.140625 "/>
<path style=" stroke:none;fill-rule:nonzero;fill:rgb(98.823529%,98.823529%,98.823529%);fill-opacity:1;" d="M 55.46875 41.648438 C 55.574219 41.648438 55.679688 41.644531 55.789062 41.644531 C 56.386719 41.640625 56.917969 41.691406 57.496094 41.859375 C 57.71875 41.921875 57.941406 41.957031 58.171875 41.988281 C 58.777344 42.09375 59.300781 42.371094 59.753906 42.785156 C 59.898438 43.070312 59.902344 43.261719 59.863281 43.578125 C 59.601562 44.207031 58.972656 44.570312 58.375 44.824219 C 58.109375 44.910156 57.847656 44.980469 57.578125 45.046875 C 57.511719 45.066406 57.441406 45.082031 57.371094 45.101562 C 55.601562 45.554688 53.269531 45.570312 51.59375 44.742188 C 51.253906 44.527344 50.992188 44.332031 50.765625 43.992188 C 50.734375 43.824219 50.734375 43.824219 50.730469 43.636719 C 50.726562 43.574219 50.722656 43.511719 50.722656 43.449219 C 50.800781 43.097656 51.03125 42.859375 51.316406 42.652344 C 51.460938 42.5625 51.609375 42.480469 51.765625 42.402344 C 51.847656 42.359375 51.847656 42.359375 51.929688 42.316406 C 52.644531 41.957031 53.367188 41.828125 54.15625 41.753906 C 54.535156 41.5625 55.054688 41.652344 55.46875 41.648438 Z M 55.46875 41.648438 "/>
<path style=" stroke:none;fill-rule:nonzero;fill:rgb(40.392157%,43.137255%,47.058824%);fill-opacity:1;" d="M 71.742188 42.136719 C 71.800781 42.136719 71.859375 42.136719 71.921875 42.136719 C 72.792969 42.140625 73.589844 42.1875 74.414062 42.5 C 74.464844 42.519531 74.519531 42.539062 74.570312 42.558594 C 75.128906 42.765625 75.574219 42.964844 75.984375 43.414062 C 76.066406 43.496094 76.066406 43.496094 76.152344 43.578125 C 76.203125 43.914062 76.167969 44.050781 75.984375 44.335938 C 75.425781 44.933594 74.734375 44.972656 73.964844 45.03125 C 73.34375 45.082031 72.820312 45.132812 72.261719 45.417969 C 71.410156 45.792969 69.929688 45.417969 69.074219 45.144531 C 68.503906 44.921875 68.0625 44.679688 67.71875 44.160156 C 67.683594 43.796875 67.664062 43.59375 67.839844 43.273438 C 68.925781 42.265625 70.328125 42.132812 71.742188 42.136719 Z M 71.742188 42.136719 "/>
<path style=" stroke:none;fill-rule:nonzero;fill:rgb(98.431373%,98.431373%,98.823529%);fill-opacity:1;" d="M 62.1875 44.636719 C 62.542969 44.660156 62.828125 44.742188 63.160156 44.859375 C 63.214844 44.878906 63.269531 44.898438 63.328125 44.917969 C 63.734375 45.058594 63.734375 45.058594 63.832031 45.15625 C 64.238281 45.191406 64.503906 45.121094 64.878906 44.964844 C 65.261719 44.851562 65.667969 44.875 66.0625 44.90625 C 66.144531 44.992188 66.144531 44.992188 66.171875 45.203125 C 66.136719 45.570312 65.996094 45.832031 65.816406 46.152344 C 65.890625 46.171875 65.890625 46.171875 65.96875 46.191406 C 66.488281 46.335938 66.925781 46.535156 67.386719 46.816406 C 67.375 47.257812 67.199219 47.53125 66.90625 47.847656 C 66.566406 48.09375 66.214844 48.039062 65.816406 47.976562 C 65.605469 47.941406 65.394531 47.894531 65.1875 47.851562 C 64.714844 47.753906 64.714844 47.753906 64.242188 47.8125 C 64.015625 47.984375 63.820312 48.171875 63.617188 48.371094 C 63.261719 48.707031 62.929688 48.863281 62.449219 48.9375 C 62.175781 48.890625 62.175781 48.890625 61.933594 48.730469 C 61.707031 48.390625 61.726562 48.128906 61.765625 47.730469 C 61.675781 47.722656 61.589844 47.714844 61.5 47.703125 C 60.140625 47.566406 60.140625 47.566406 59.695312 47.230469 C 59.59375 47.019531 59.59375 47.019531 59.613281 46.816406 C 59.933594 46.402344 60.550781 46.289062 61.035156 46.171875 C 61.335938 46.144531 61.628906 46.148438 61.929688 46.152344 C 61.910156 46.0625 61.910156 46.0625 61.894531 45.96875 C 61.878906 45.886719 61.863281 45.804688 61.847656 45.722656 C 61.832031 45.640625 61.816406 45.5625 61.800781 45.480469 C 61.765625 45.253906 61.746094 45.050781 61.765625 44.824219 C 61.929688 44.65625 61.929688 44.65625 62.1875 44.636719 Z M 62.1875 44.636719 "/>
<path style=" stroke:none;fill-rule:nonzero;fill:rgb(98.431373%,98.431373%,98.431373%);fill-opacity:1;" d="M 65.484375 38.847656 C 65.648438 39.015625 65.648438 39.015625 65.664062 39.246094 C 65.664062 39.339844 65.660156 39.429688 65.660156 39.523438 C 65.660156 39.613281 65.65625 39.703125 65.65625 39.796875 C 65.652344 39.867188 65.652344 39.9375 65.648438 40.007812 C 65.75 40.015625 65.851562 40.023438 65.953125 40.03125 C 66.46875 40.089844 67 40.203125 67.46875 40.425781 C 67.542969 40.601562 67.542969 40.601562 67.550781 40.757812 C 67.234375 40.972656 66.976562 41.054688 66.59375 41.105469 C 66.503906 41.117188 66.410156 41.128906 66.316406 41.144531 C 66.0625 41.171875 66.0625 41.171875 65.734375 41.171875 C 65.761719 41.234375 65.792969 41.292969 65.824219 41.355469 C 65.863281 41.4375 65.902344 41.519531 65.945312 41.601562 C 65.984375 41.683594 66.023438 41.761719 66.0625 41.84375 C 66.152344 42.109375 66.15625 42.238281 66.0625 42.5 C 65.804688 42.628906 65.605469 42.605469 65.320312 42.582031 C 65.023438 42.484375 64.753906 42.339844 64.472656 42.203125 C 64.144531 42.042969 63.945312 41.957031 63.582031 42.085938 C 63.472656 42.121094 63.472656 42.121094 63.359375 42.160156 C 63.28125 42.1875 63.207031 42.214844 63.128906 42.246094 C 63.050781 42.273438 62.976562 42.300781 62.898438 42.332031 C 62.75 42.386719 62.601562 42.449219 62.453125 42.507812 C 62.210938 42.601562 62.019531 42.605469 61.765625 42.582031 C 61.710938 42.527344 61.65625 42.472656 61.597656 42.417969 C 61.628906 42 61.777344 41.640625 61.929688 41.253906 C 61.839844 41.25 61.75 41.25 61.65625 41.246094 C 61.539062 41.238281 61.417969 41.234375 61.296875 41.230469 C 61.210938 41.226562 61.210938 41.226562 61.121094 41.222656 C 60.726562 41.203125 60.457031 41.125 60.109375 40.921875 C 60.109375 40.8125 60.109375 40.703125 60.109375 40.589844 C 60.390625 40.402344 60.644531 40.351562 60.96875 40.289062 C 61.023438 40.277344 61.078125 40.269531 61.132812 40.257812 C 61.429688 40.199219 61.710938 40.164062 62.011719 40.175781 C 61.988281 40.125 61.964844 40.078125 61.9375 40.027344 C 61.632812 39.375 61.632812 39.375 61.679688 39.015625 C 62.1875 38.984375 62.523438 39.054688 62.984375 39.269531 C 63.351562 39.449219 63.351562 39.449219 63.75 39.503906 C 64.050781 39.363281 64.347656 39.210938 64.640625 39.050781 C 64.929688 38.898438 65.152344 38.796875 65.484375 38.847656 Z M 65.484375 38.847656 "/>
<path style=" stroke:none;fill-rule:nonzero;fill:rgb(69.01961%,71.372551%,74.509805%);fill-opacity:1;" d="M 91.117188 46.648438 C 91.246094 46.910156 91.128906 47.152344 91.058594 47.421875 C 91.042969 47.484375 91.027344 47.542969 91.011719 47.605469 C 90.441406 49.792969 89.488281 52.007812 87.917969 53.667969 C 87.808594 53.785156 87.703125 53.902344 87.601562 54.019531 C 87.238281 54.453125 86.847656 54.808594 86.40625 55.160156 C 86.34375 55.210938 86.28125 55.261719 86.214844 55.316406 C 86.054688 55.445312 85.898438 55.570312 85.742188 55.699219 C 85.6875 55.671875 85.632812 55.644531 85.578125 55.617188 C 85.625 55.566406 85.625 55.566406 85.675781 55.515625 C 86.207031 54.957031 86.546875 54.300781 86.898438 53.625 C 86.925781 53.570312 86.953125 53.519531 86.980469 53.46875 C 87.488281 52.488281 87.875 51.410156 88.039062 50.316406 C 88.191406 49.363281 88.488281 48.90625 89.25 48.324219 C 89.417969 48.199219 89.574219 48.0625 89.730469 47.921875 C 89.804688 47.855469 89.804688 47.855469 89.882812 47.789062 C 90.136719 47.558594 90.375 47.3125 90.613281 47.066406 C 90.773438 46.910156 90.933594 46.78125 91.117188 46.648438 Z M 91.117188 46.648438 "/>
<path style=" stroke:none;fill-rule:nonzero;fill:rgb(59.215689%,78.039217%,59.215689%);fill-opacity:1;" d="M 76.398438 23.65625 C 76.570312 23.914062 76.585938 23.980469 76.597656 24.273438 C 76.601562 24.347656 76.601562 24.425781 76.605469 24.503906 C 76.609375 24.585938 76.609375 24.667969 76.613281 24.753906 C 76.617188 24.839844 76.621094 24.929688 76.621094 25.019531 C 76.65625 26.019531 76.671875 27.019531 76.675781 28.019531 C 76.675781 28.304688 76.679688 28.589844 76.683594 28.875 C 76.6875 29.210938 76.6875 29.546875 76.691406 29.882812 C 76.691406 29.984375 76.695312 30.089844 76.695312 30.195312 C 76.695312 30.894531 76.695312 30.894531 76.464844 31.222656 C 76.246094 31.367188 76.035156 31.496094 75.796875 31.609375 C 75.714844 31.648438 75.632812 31.6875 75.546875 31.730469 C 75.414062 31.792969 75.414062 31.792969 75.277344 31.855469 C 75.183594 31.898438 75.089844 31.941406 74.996094 31.988281 C 74.25 32.339844 73.5 32.679688 72.746094 33.015625 C 72.480469 33.136719 72.210938 33.257812 71.945312 33.375 C 70.96875 33.820312 69.992188 34.261719 69.003906 34.683594 C 68.882812 34.734375 68.882812 34.734375 68.757812 34.789062 C 68.371094 34.953125 68.0625 35.078125 67.632812 35.03125 C 67.921875 34.792969 68.238281 34.632812 68.566406 34.46875 C 68.625 34.4375 68.683594 34.40625 68.746094 34.375 C 68.941406 34.277344 69.136719 34.183594 69.328125 34.085938 C 69.394531 34.050781 69.460938 34.019531 69.53125 33.984375 C 70.476562 33.511719 71.425781 33.050781 72.386719 32.609375 C 73.117188 32.273438 73.84375 31.925781 74.570312 31.574219 C 74.691406 31.515625 74.816406 31.457031 74.9375 31.398438 C 75.109375 31.3125 75.28125 31.230469 75.453125 31.148438 C 75.503906 31.121094 75.554688 31.097656 75.609375 31.074219 C 75.820312 30.96875 75.980469 30.882812 76.148438 30.710938 C 76.179688 30.523438 76.179688 30.523438 76.183594 30.296875 C 76.1875 30.210938 76.1875 30.121094 76.191406 30.03125 C 76.195312 29.890625 76.195312 29.890625 76.199219 29.742188 C 76.203125 29.644531 76.207031 29.542969 76.210938 29.441406 C 76.21875 29.121094 76.230469 28.800781 76.238281 28.480469 C 76.246094 28.273438 76.25 28.066406 76.257812 27.859375 C 76.269531 27.445312 76.285156 27.027344 76.296875 26.613281 C 76.324219 25.628906 76.363281 24.644531 76.398438 23.65625 Z M 76.398438 23.65625 "/>
<path style=" stroke:none;fill-rule:nonzero;fill:rgb(51.764709%,54.11765%,57.647061%);fill-opacity:1;" d="M 80.863281 57.9375 C 81.144531 58.054688 81.429688 58.171875 81.710938 58.292969 C 81.789062 58.324219 81.871094 58.359375 81.953125 58.390625 C 82.070312 58.441406 82.070312 58.441406 82.1875 58.492188 C 82.257812 58.519531 82.328125 58.550781 82.402344 58.582031 C 82.71875 58.75 82.898438 58.921875 83.011719 59.265625 C 83.019531 59.386719 83.023438 59.503906 83.027344 59.625 C 83.027344 59.695312 83.027344 59.765625 83.027344 59.839844 C 83.027344 59.917969 83.03125 59.992188 83.03125 60.074219 C 83.03125 60.152344 83.03125 60.230469 83.03125 60.3125 C 83.03125 60.484375 83.03125 60.652344 83.03125 60.820312 C 83.035156 61.078125 83.035156 61.332031 83.039062 61.589844 C 83.039062 61.753906 83.039062 61.917969 83.039062 62.082031 C 83.042969 62.15625 83.042969 62.234375 83.042969 62.3125 C 83.042969 62.746094 83.003906 63.042969 82.765625 63.417969 C 82.152344 64.003906 81.21875 64.246094 80.433594 64.535156 C 80.375 64.554688 80.3125 64.578125 80.25 64.601562 C 79.816406 64.757812 79.816406 64.757812 79.539062 64.664062 C 80.214844 64.300781 80.929688 64.058594 81.652344 63.808594 C 81.75 63.773438 81.84375 63.738281 81.945312 63.703125 C 82.03125 63.671875 82.121094 63.640625 82.210938 63.609375 C 82.453125 63.492188 82.546875 63.398438 82.683594 63.167969 C 82.761719 62.933594 82.777344 62.789062 82.777344 62.546875 C 82.777344 62.46875 82.78125 62.394531 82.78125 62.316406 C 82.78125 62.234375 82.78125 62.152344 82.78125 62.070312 C 82.78125 61.945312 82.78125 61.945312 82.78125 61.816406 C 82.785156 61.636719 82.785156 61.460938 82.785156 61.285156 C 82.785156 61.011719 82.789062 60.738281 82.789062 60.46875 C 82.792969 60.296875 82.792969 60.125 82.792969 59.953125 C 82.792969 59.871094 82.792969 59.789062 82.796875 59.707031 C 82.796875 59.628906 82.792969 59.554688 82.792969 59.476562 C 82.792969 59.410156 82.796875 59.34375 82.796875 59.273438 C 82.757812 59.058594 82.6875 58.988281 82.515625 58.851562 C 82.320312 58.75 82.320312 58.75 82.09375 58.664062 C 82.011719 58.632812 81.933594 58.597656 81.847656 58.566406 C 81.765625 58.53125 81.679688 58.496094 81.59375 58.464844 C 81.464844 58.410156 81.464844 58.410156 81.332031 58.359375 C 81.121094 58.273438 80.910156 58.1875 80.699219 58.105469 C 80.753906 58.050781 80.808594 57.996094 80.863281 57.9375 Z M 80.863281 57.9375 "/>
<path style=" stroke:none;fill-rule:nonzero;fill:rgb(62.7451%,81.176472%,61.960787%);fill-opacity:1;" d="M 76.398438 23.65625 C 76.605469 23.964844 76.585938 24.125 76.585938 24.496094 C 76.585938 24.554688 76.585938 24.613281 76.585938 24.675781 C 76.589844 24.871094 76.589844 25.070312 76.589844 25.265625 C 76.589844 25.402344 76.589844 25.539062 76.589844 25.675781 C 76.589844 25.960938 76.589844 26.25 76.589844 26.535156 C 76.589844 26.902344 76.589844 27.269531 76.59375 27.636719 C 76.59375 27.921875 76.59375 28.203125 76.59375 28.484375 C 76.59375 28.621094 76.59375 28.757812 76.59375 28.890625 C 76.597656 29.082031 76.59375 29.269531 76.59375 29.460938 C 76.59375 29.570312 76.59375 29.675781 76.59375 29.789062 C 76.5625 30.046875 76.5625 30.046875 76.4375 30.210938 C 76.398438 30.238281 76.355469 30.269531 76.316406 30.296875 C 76.296875 25.574219 76.296875 25.574219 76.398438 23.65625 Z M 76.398438 23.65625 "/>
<path style=" stroke:none;fill-rule:nonzero;fill:rgb(52.156866%,54.509807%,58.823532%);fill-opacity:1;" d="M 44.566406 59.433594 C 44.59375 59.433594 44.621094 59.433594 44.648438 59.433594 C 44.648438 59.539062 44.648438 59.644531 44.648438 59.753906 C 44.652344 60.148438 44.65625 60.542969 44.660156 60.9375 C 44.664062 61.105469 44.664062 61.277344 44.664062 61.445312 C 44.664062 61.691406 44.667969 61.9375 44.671875 62.179688 C 44.671875 62.257812 44.671875 62.332031 44.671875 62.410156 C 44.679688 62.777344 44.691406 62.949219 44.917969 63.25 C 45.125 63.40625 45.304688 63.511719 45.546875 63.605469 C 45.621094 63.632812 45.691406 63.660156 45.769531 63.691406 C 45.84375 63.71875 45.917969 63.746094 45.996094 63.777344 C 46.074219 63.804688 46.152344 63.835938 46.230469 63.867188 C 46.417969 63.9375 46.609375 64.011719 46.796875 64.082031 C 46.796875 64.136719 46.796875 64.191406 46.796875 64.25 C 46.433594 64.191406 46.105469 64.066406 45.765625 63.925781 C 45.710938 63.90625 45.65625 63.882812 45.601562 63.863281 C 44.710938 63.503906 44.710938 63.503906 44.484375 63.003906 C 44.449219 62.734375 44.453125 62.472656 44.457031 62.203125 C 44.457031 62.125 44.457031 62.050781 44.457031 61.96875 C 44.457031 61.808594 44.457031 61.648438 44.460938 61.488281 C 44.460938 61.238281 44.464844 60.992188 44.464844 60.742188 C 44.464844 60.585938 44.464844 60.429688 44.464844 60.273438 C 44.464844 60.199219 44.46875 60.125 44.46875 60.046875 C 44.472656 59.527344 44.472656 59.527344 44.566406 59.433594 Z M 44.566406 59.433594 "/>
<path style=" stroke:none;fill-rule:nonzero;fill:rgb(50.196081%,52.941179%,57.254905%);fill-opacity:1;" d="M 44.484375 44.410156 C 44.539062 44.410156 44.59375 44.410156 44.648438 44.410156 C 44.648438 44.457031 44.648438 44.507812 44.648438 44.558594 C 44.65625 45.070312 44.664062 45.585938 44.671875 46.097656 C 44.671875 46.289062 44.675781 46.480469 44.675781 46.671875 C 44.679688 46.949219 44.683594 47.222656 44.6875 47.496094 C 44.691406 47.625 44.691406 47.625 44.691406 47.757812 C 44.691406 47.835938 44.695312 47.917969 44.695312 48 C 44.695312 48.070312 44.695312 48.140625 44.699219 48.210938 C 44.738281 48.4375 44.804688 48.503906 44.980469 48.640625 C 45.164062 48.75 45.34375 48.851562 45.53125 48.949219 C 45.582031 48.976562 45.632812 49 45.683594 49.027344 C 45.808594 49.09375 45.929688 49.160156 46.054688 49.222656 C 45.824219 49.316406 45.738281 49.3125 45.503906 49.21875 C 45.386719 49.15625 45.386719 49.15625 45.269531 49.089844 C 45.191406 49.046875 45.113281 49.003906 45.035156 48.960938 C 44.777344 48.78125 44.644531 48.664062 44.484375 48.394531 C 44.4375 48.089844 44.445312 47.789062 44.449219 47.480469 C 44.453125 47.394531 44.453125 47.304688 44.453125 47.214844 C 44.453125 46.933594 44.457031 46.65625 44.460938 46.375 C 44.464844 46.183594 44.464844 45.996094 44.46875 45.804688 C 44.46875 45.339844 44.476562 44.875 44.484375 44.410156 Z M 44.484375 44.410156 "/>
<path style=" stroke:none;fill-rule:nonzero;fill:rgb(49.803922%,52.549022%,56.078434%);fill-opacity:1;" d="M 79.457031 64.828125 C 78.777344 65.15625 78.082031 65.425781 77.375 65.679688 C 77.15625 65.757812 76.9375 65.839844 76.71875 65.917969 C 76.664062 65.9375 76.609375 65.957031 76.554688 65.980469 C 76.191406 66.109375 75.832031 66.246094 75.472656 66.386719 C 75.335938 66.4375 75.335938 66.4375 75.199219 66.492188 C 75.027344 66.558594 74.855469 66.625 74.683594 66.691406 C 74.609375 66.722656 74.53125 66.75 74.453125 66.78125 C 74.386719 66.808594 74.324219 66.832031 74.253906 66.859375 C 74.082031 66.90625 74.082031 66.90625 73.835938 66.820312 C 74.464844 66.523438 75.097656 66.265625 75.75 66.023438 C 75.886719 65.972656 75.886719 65.972656 76.027344 65.921875 C 76.320312 65.8125 76.609375 65.703125 76.898438 65.597656 C 77.191406 65.488281 77.484375 65.378906 77.777344 65.269531 C 77.960938 65.203125 78.140625 65.136719 78.324219 65.066406 C 78.40625 65.039062 78.484375 65.007812 78.570312 64.976562 C 78.640625 64.949219 78.714844 64.921875 78.789062 64.894531 C 79.179688 64.746094 79.179688 64.746094 79.457031 64.828125 Z M 79.457031 64.828125 "/>
<path style=" stroke:none;fill-rule:nonzero;fill:rgb(50.588238%,52.941179%,57.254905%);fill-opacity:1;" d="M 44.484375 51.796875 C 44.511719 51.796875 44.539062 51.796875 44.566406 51.796875 C 44.648438 52.214844 44.664062 52.613281 44.671875 53.039062 C 44.671875 53.105469 44.675781 53.175781 44.675781 53.25 C 44.683594 53.546875 44.6875 53.847656 44.695312 54.144531 C 44.699219 54.363281 44.703125 54.582031 44.707031 54.800781 C 44.710938 54.902344 44.710938 54.902344 44.710938 55.003906 C 44.71875 55.480469 44.71875 55.480469 44.8125 55.945312 C 45.003906 56.054688 45.003906 56.054688 45.226562 56.113281 C 45.339844 56.167969 45.449219 56.222656 45.558594 56.28125 C 45.558594 56.335938 45.558594 56.390625 45.558594 56.445312 C 45.179688 56.3125 44.773438 56.144531 44.550781 55.792969 C 44.472656 55.59375 44.464844 55.445312 44.464844 55.226562 C 44.464844 55.152344 44.464844 55.074219 44.464844 54.996094 C 44.464844 54.914062 44.464844 54.832031 44.46875 54.746094 C 44.46875 54.664062 44.46875 54.578125 44.46875 54.492188 C 44.46875 54.222656 44.46875 53.953125 44.472656 53.683594 C 44.472656 53.503906 44.472656 53.320312 44.476562 53.136719 C 44.476562 52.691406 44.480469 52.242188 44.484375 51.796875 Z M 44.484375 51.796875 "/>
<path style=" stroke:none;fill-rule:nonzero;fill:rgb(51.372552%,53.725493%,57.647061%);fill-opacity:1;" d="M 48.121094 64.664062 C 48.53125 64.726562 48.90625 64.875 49.292969 65.019531 C 49.363281 65.046875 49.433594 65.074219 49.503906 65.101562 C 49.984375 65.28125 50.460938 65.464844 50.933594 65.660156 C 50.933594 65.6875 50.933594 65.714844 50.933594 65.742188 C 50.328125 65.699219 49.808594 65.511719 49.246094 65.296875 C 49.15625 65.261719 49.066406 65.230469 48.972656 65.195312 C 48.886719 65.164062 48.800781 65.128906 48.714844 65.097656 C 48.636719 65.066406 48.558594 65.039062 48.476562 65.007812 C 48.285156 64.914062 48.285156 64.914062 48.121094 64.664062 Z M 48.121094 64.664062 "/>
<path style=" stroke:none;fill-rule:nonzero;fill:rgb(53.725493%,55.686277%,59.215689%);fill-opacity:1;" d="M 45.722656 56.445312 C 46.121094 56.5 46.460938 56.660156 46.824219 56.824219 C 46.914062 56.863281 46.914062 56.863281 47.007812 56.90625 C 47.160156 56.972656 47.308594 57.042969 47.460938 57.109375 C 47.316406 57.199219 47.316406 57.199219 47.128906 57.273438 C 46.960938 57.234375 46.960938 57.234375 46.789062 57.144531 C 46.726562 57.117188 46.664062 57.085938 46.601562 57.054688 C 46.503906 57.003906 46.503906 57.003906 46.40625 56.953125 C 46.339844 56.921875 46.273438 56.890625 46.207031 56.855469 C 46.046875 56.773438 45.882812 56.695312 45.722656 56.609375 C 45.722656 56.554688 45.722656 56.5 45.722656 56.445312 Z M 45.722656 56.445312 "/>
<path style=" stroke:none;fill-rule:nonzero;fill:rgb(56.078434%,58.431375%,62.352943%);fill-opacity:1;" d="M 58.207031 68.480469 C 58.859375 68.578125 59.429688 68.792969 60.027344 69.0625 C 60.027344 69.089844 60.027344 69.117188 60.027344 69.144531 C 59.40625 69.109375 58.851562 68.914062 58.289062 68.648438 C 58.265625 68.59375 58.238281 68.539062 58.207031 68.480469 Z M 58.207031 68.480469 "/>
<path style=" stroke:none;fill-rule:nonzero;fill:rgb(52.549022%,54.901963%,58.823532%);fill-opacity:1;" d="M 73.753906 66.988281 C 73.582031 67.070312 73.410156 67.152344 73.242188 67.234375 C 73.144531 67.28125 73.050781 67.328125 72.953125 67.375 C 72.695312 67.476562 72.535156 67.511719 72.265625 67.484375 C 72.46875 67.246094 72.671875 67.15625 72.960938 67.050781 C 73.039062 67.019531 73.117188 66.992188 73.199219 66.960938 C 73.425781 66.902344 73.535156 66.90625 73.753906 66.988281 Z M 73.753906 66.988281 "/>
<path style=" stroke:none;fill-rule:nonzero;fill:rgb(49.803922%,52.156866%,55.686277%);fill-opacity:1;" d="M 81.609375 56.777344 C 80.953125 57.105469 80.953125 57.105469 80.285156 57.441406 C 80.230469 57.386719 80.175781 57.332031 80.117188 57.273438 C 80.320312 57.175781 80.523438 57.078125 80.722656 56.980469 C 80.78125 56.953125 80.839844 56.921875 80.898438 56.894531 C 81.332031 56.683594 81.332031 56.683594 81.609375 56.777344 Z M 81.609375 56.777344 "/>
<path style=" stroke:none;fill-rule:nonzero;fill:rgb(54.509807%,57.254905%,60.784316%);fill-opacity:1;" d="M 46.882812 57.773438 C 46.882812 57.855469 46.882812 57.9375 46.882812 58.023438 C 46.734375 58.09375 46.585938 58.160156 46.4375 58.230469 C 46.3125 58.289062 46.3125 58.289062 46.1875 58.347656 C 45.972656 58.4375 45.972656 58.4375 45.804688 58.4375 C 45.804688 58.355469 45.804688 58.273438 45.804688 58.1875 C 45.953125 58.117188 46.101562 58.050781 46.25 57.980469 C 46.332031 57.941406 46.414062 57.902344 46.5 57.863281 C 46.714844 57.773438 46.714844 57.773438 46.882812 57.773438 Z M 46.882812 57.773438 "/>
<path style=" stroke:none;fill-rule:nonzero;fill:rgb(53.725493%,56.470591%,60.392159%);fill-opacity:1;" d="M 49.527344 65.160156 C 50 65.316406 50.46875 65.480469 50.933594 65.660156 C 50.933594 65.6875 50.933594 65.714844 50.933594 65.742188 C 50.386719 65.703125 49.945312 65.546875 49.445312 65.328125 C 49.472656 65.273438 49.5 65.21875 49.527344 65.160156 Z M 49.527344 65.160156 "/>
<path style=" stroke:none;fill-rule:nonzero;fill:rgb(49.411765%,51.372552%,54.901963%);fill-opacity:1;" d="M 46.136719 49.304688 C 46.269531 49.347656 46.40625 49.386719 46.539062 49.425781 C 46.613281 49.449219 46.6875 49.46875 46.765625 49.492188 C 46.964844 49.554688 46.964844 49.554688 47.128906 49.640625 C 47.128906 49.722656 47.128906 49.804688 47.128906 49.886719 C 46.878906 49.835938 46.671875 49.75 46.445312 49.632812 C 46.386719 49.601562 46.328125 49.574219 46.269531 49.542969 C 46.226562 49.519531 46.183594 49.496094 46.136719 49.472656 C 46.136719 49.417969 46.136719 49.363281 46.136719 49.304688 Z M 46.136719 49.304688 "/>
<path style=" stroke:none;fill-rule:nonzero;fill:rgb(52.549022%,55.29412%,58.431375%);fill-opacity:1;" d="M 46.964844 50.136719 C 47.019531 50.164062 47.074219 50.191406 47.128906 50.21875 C 46.875 50.523438 46.695312 50.597656 46.300781 50.632812 C 46.300781 50.578125 46.300781 50.523438 46.300781 50.46875 C 46.410156 50.410156 46.515625 50.355469 46.621094 50.296875 C 46.683594 50.265625 46.742188 50.234375 46.800781 50.203125 C 46.855469 50.179688 46.910156 50.160156 46.964844 50.136719 Z M 46.964844 50.136719 "/>
<path style=" stroke:none;fill-rule:nonzero;fill:rgb(53.333336%,55.686277%,59.607846%);fill-opacity:1;" d="M 44.980469 43.578125 C 45.0625 43.605469 45.144531 43.632812 45.226562 43.664062 C 45.09375 43.804688 44.953125 43.941406 44.8125 44.078125 C 44.757812 44.078125 44.703125 44.078125 44.648438 44.078125 C 44.675781 43.921875 44.675781 43.921875 44.730469 43.746094 C 44.8125 43.691406 44.894531 43.636719 44.980469 43.578125 Z M 44.980469 43.578125 "/>
</g>
</svg>
